<svg width="76" height="72" viewBox="0 0 76 72" fill="none" xmlns="http://www.w3.org/2000/svg">
<path d="M67.3058 27.5171C64.9109 27.5171 62.8033 28.5114 61.2546 30.0668C55.5546 26.106 47.8748 23.5563 39.3647 23.2837L43.7874 3.27127L57.8697 6.44632C57.8697 9.91002 60.6798 12.7323 64.1285 12.7323C67.6411 12.7323 70.4672 9.82984 70.4672 6.36615C70.4672 2.90245 67.6571 0 64.1285 0C61.6697 0 59.5462 1.49131 58.4924 3.52784L42.9411 0.0641425C42.1588 -0.144321 41.3924 0.416927 41.1848 1.20267L36.3311 23.2677C27.8848 23.6205 20.2848 26.1702 14.5689 30.131C13.0201 28.5114 10.8327 27.5171 8.43778 27.5171C-0.439527 27.5171 -3.34541 39.4797 4.78148 43.5688C4.49409 44.8356 4.36635 46.1826 4.36635 47.5296C4.36635 60.9675 19.4386 71.8557 37.9437 71.8557C56.5285 71.8557 71.6008 60.9675 71.6008 47.5296C71.6008 46.1826 71.4571 44.7715 71.1058 43.5047C79.0731 39.3995 76.1353 27.5171 67.3058 27.5171ZM17.6664 44.4187C17.6664 40.8909 20.4764 38.0526 24.005 38.0526C27.4538 38.0526 30.2638 40.8748 30.2638 44.4187C30.2638 47.8824 27.4538 50.7047 24.005 50.7047C20.4924 50.7207 17.6664 47.8824 17.6664 44.4187ZM51.8823 59.412C46.0706 65.249 29.6731 65.249 23.8613 59.412C23.2227 58.8508 23.2227 57.8566 23.8613 57.2151C24.4201 56.6539 25.4101 56.6539 25.9689 57.2151C30.4075 61.7853 45.1285 61.8655 49.7588 57.2151C50.3176 56.6539 51.3075 56.6539 51.8664 57.2151C52.521 57.8566 52.521 58.8508 51.8823 59.412ZM51.7546 50.7207C48.3058 50.7207 45.4958 47.8984 45.4958 44.4347C45.4958 40.9069 48.3058 38.0686 51.7546 38.0686C55.2672 38.0686 58.0932 40.8909 58.0932 44.4347C58.0773 47.8824 55.2672 50.7207 51.7546 50.7207Z" fill="#737373"/>
</svg>
