<svg width="104" height="62" viewBox="0 0 104 62" fill="none" xmlns="http://www.w3.org/2000/svg">
<path d="M29.2256 22.3632C29.109 26.0013 30.9428 27.6123 30.9881 28.6355C30.9665 28.8437 30.895 29.0438 30.7794 29.219C30.6639 29.3942 30.5077 29.5395 30.3239 29.6426L28.2504 31.0818C27.9821 31.2683 27.6658 31.3752 27.3384 31.3902C27.2687 31.3869 26.0117 31.6841 24.0208 27.2766C22.8061 28.78 21.2606 29.9878 19.5027 30.8077C17.7447 31.6276 15.8208 32.0378 13.8783 32.0069C11.2411 32.1499 4.09391 30.5228 4.46164 22.9784C4.20407 16.8298 9.97914 13.0102 15.9519 13.3331C17.102 13.3363 19.4509 13.3925 23.5639 14.3402V11.8312C23.9997 7.58119 21.1826 4.28362 16.305 4.77834C15.9162 4.77994 13.1623 4.69803 8.87921 6.40223C7.68693 6.94513 7.53466 6.85518 7.13777 6.85518C5.9374 6.85518 6.43148 3.40502 6.66151 2.96813C7.5055 1.94015 12.4706 0.0207225 17.3434 0.0480282C20.6015 -0.237674 23.8421 0.759341 26.3648 2.82357C27.3903 3.96091 28.1726 5.29253 28.6646 6.73801C29.1566 8.1835 29.348 9.71285 29.2272 11.2337L29.2256 22.3632ZM15.2261 27.5657C20.4796 27.4903 22.7038 24.3581 23.2108 22.6716C23.6093 21.0574 23.5429 20.0358 23.5429 18.2706C21.9764 17.8979 19.7214 17.4916 17.1344 17.4883C14.6802 17.3052 10.1978 18.3926 10.3728 22.67C10.1719 25.3668 12.1742 27.7135 15.2261 27.5657ZM42.9141 31.2681C41.6408 31.3837 41.0479 30.4875 40.86 29.6024L32.7927 3.15606C32.6356 2.70953 32.5319 2.24855 32.4817 1.77792C32.4519 1.5839 32.5011 1.38609 32.6183 1.22798C32.7356 1.06986 32.9113 0.964358 33.107 0.93466C33.1459 0.928235 32.7619 0.93466 36.7114 0.93466C38.1337 0.793313 38.597 1.90321 38.7444 2.60031L44.5308 25.2207L49.9025 2.60031C49.9884 2.08311 50.3788 0.822225 51.976 0.955541H54.7558C55.1074 0.92663 56.5556 0.87523 56.8099 2.62119L62.2237 25.5307L68.1965 2.62119C68.2742 2.27103 68.6371 0.79492 70.2505 0.955541H73.4451C73.5827 0.934661 74.4413 0.825437 74.2955 2.33368C74.2259 2.63083 74.8479 0.621449 65.7504 29.6233C65.5641 30.5083 64.9695 31.4046 63.6963 31.289H60.6686C58.8964 31.4737 58.6421 29.7374 58.6145 29.5623L53.2428 7.53621L47.9327 29.5398C47.9067 29.7149 47.6524 31.4512 45.8786 31.2665H42.9141V31.2681ZM87.2161 32.1724C86.2636 32.174 81.7213 32.1242 77.9242 30.1983C77.5459 30.0395 77.2238 29.773 76.9985 29.4324C76.7733 29.0918 76.6551 28.6926 76.659 28.2853V26.5587C76.659 25.2014 77.6634 25.4504 78.0894 25.6126C79.7158 26.2647 80.7591 26.7594 82.7565 27.1546C88.6935 28.364 91.3049 26.7851 91.9447 26.435C94.075 25.1805 94.2434 22.3102 92.7952 20.8212C91.0975 19.4094 90.2876 19.3564 84.1885 17.4482C83.4368 17.241 77.1094 15.2621 77.0948 9.03803C76.996 4.50207 81.1527 0.0142971 88.3566 0.0512401C90.409 0.0496339 95.878 0.714608 97.3586 2.56015C97.5773 2.89585 97.6858 3.29098 97.6696 3.69093V5.31482C97.6696 6.02798 97.4072 6.38456 96.8807 6.38456C95.6317 6.24642 93.4156 4.59041 88.9171 4.65787C87.8009 4.60005 82.4551 4.80404 82.6949 8.6686C82.6252 11.714 87.0056 12.856 87.5061 12.9877C93.4124 14.7497 95.3871 15.0421 97.7312 17.7389C100.508 21.3127 99.0109 25.4969 98.4358 26.6438C95.345 32.6655 87.3522 32.1756 87.2161 32.1724ZM93.7283 49.0152C82.3839 57.3225 65.9156 61.7445 51.8545 61.7445C32.8819 61.8685 14.5487 54.9513 0.45877 42.3526C-0.599049 41.4065 0.334035 40.1103 1.62027 40.8315C17.2502 49.6965 34.9465 54.3544 52.9528 54.343C66.3995 54.2715 79.6995 51.5668 92.0889 46.3842C93.9972 45.5811 95.6155 47.637 93.7283 49.0152ZM98.4569 43.6681C97.0054 41.8177 88.8539 42.8039 85.2042 43.236C84.1042 43.3597 83.918 42.4136 84.9142 41.7149C91.4053 37.1902 102.066 38.4864 103.291 40.0075C104.514 41.5286 102.959 52.12 96.8823 57.1796C95.9492 57.9618 95.0566 57.549 95.4713 56.521C96.8386 53.1078 99.9084 45.5201 98.4569 43.6681Z" fill="#737373"/>
</svg>
