<svg width="48" height="41" viewBox="0 0 48 41" fill="none" xmlns="http://www.w3.org/2000/svg">
<path d="M42.2468 8.44937H37.1772V3.37975C37.1772 2.48338 36.8211 1.62373 36.1873 0.989905C35.5535 0.356079 34.6938 0 33.7975 0H13.519C12.6226 0 11.763 0.356079 11.1291 0.989905C10.4953 1.62373 10.1392 2.48338 10.1392 3.37975V8.44937H5.06962C3.72507 8.44937 2.4356 8.98349 1.48486 9.93422C0.534119 10.885 0 12.1744 0 13.519V37.1772C0 38.0736 0.356079 38.9332 0.989905 39.5671C1.62373 40.2009 2.48338 40.557 3.37975 40.557H43.9367C44.8331 40.557 45.6927 40.2009 46.3265 39.5671C46.9604 38.9332 47.3165 38.0736 47.3165 37.1772V13.519C47.3165 12.1744 46.7823 10.885 45.8316 9.93422C44.8809 8.98349 43.5914 8.44937 42.2468 8.44937ZM13.519 3.37975H33.7975V8.44937H13.519V3.37975ZM43.9367 37.1772H3.37975V21.9684H16.8987V30.4177H30.4177V21.9684H43.9367V37.1772ZM20.2785 21.9684H27.038V27.038H20.2785V21.9684ZM3.37975 18.5886V13.519C3.37975 13.0708 3.55779 12.641 3.8747 12.3241C4.19161 12.0072 4.62144 11.8291 5.06962 11.8291H42.2468C42.695 11.8291 43.1248 12.0072 43.4418 12.3241C43.7587 12.641 43.9367 13.0708 43.9367 13.519V18.5886H3.37975Z" fill="#0D5C63"/>
</svg>
