<svg width="24" height="25" viewBox="0 0 24 25" fill="none" xmlns="http://www.w3.org/2000/svg">
<path d="M23.6953 0.302884C23.5604 0.163184 23.3899 0.066461 23.2039 0.0240874C23.0179 -0.0182863 22.8241 -0.00454906 22.6453 0.0636838L0.645352 8.38368C0.45562 8.45853 0.292272 8.59163 0.177003 8.76532C0.0617345 8.939 0 9.14504 0 9.35608C0 9.56712 0.0617345 9.77317 0.177003 9.94685C0.292272 10.1205 0.45562 10.2536 0.645352 10.3285L10.2454 14.3221L14.0854 24.3061C14.1575 24.4947 14.2812 24.6573 14.4411 24.7737C14.601 24.8902 14.7902 24.9554 14.9853 24.9613C15.1874 24.957 15.3835 24.8891 15.5478 24.7665C15.712 24.644 15.8367 24.4726 15.9053 24.2749L23.9053 1.39488C23.9735 1.21088 23.9899 1.01053 23.9527 0.817188C23.9156 0.623845 23.8263 0.445478 23.6953 0.302884ZM14.9853 21.0093L12.1953 13.7293L16.9853 8.74768L15.5753 7.28128L10.7454 12.3045L3.78535 9.36128L21.3153 2.77808L14.9853 21.0093Z" fill="#8EC2F2"/>
</svg>
