<svg width="24" height="24" viewBox="0 0 24 24" fill="none" xmlns="http://www.w3.org/2000/svg">
<path d="M11.9889 5.83889C8.58389 5.83889 5.83589 8.58689 5.83589 11.9919C5.83589 15.3969 8.58389 18.1449 11.9889 18.1449C15.3939 18.1449 18.1419 15.3969 18.1419 11.9919C18.1419 8.58689 15.3939 5.83889 11.9889 5.83889ZM11.9889 15.9909C9.78689 15.9909 7.98989 14.1939 7.98989 11.9919C7.98989 9.78989 9.78689 7.99289 11.9889 7.99289C14.1909 7.99289 15.9879 9.78989 15.9879 11.9919C15.9879 14.1939 14.1909 15.9909 11.9889 15.9909ZM18.3939 4.15289C17.5989 4.15289 16.9569 4.79489 16.9569 5.58989C16.9569 6.38489 17.5989 7.02689 18.3939 7.02689C19.1889 7.02689 19.8309 6.38789 19.8309 5.58989C19.8311 5.40112 19.7941 5.21415 19.722 5.0397C19.6499 4.86524 19.544 4.70674 19.4105 4.57325C19.277 4.43977 19.1185 4.33393 18.9441 4.26179C18.7696 4.18966 18.5827 4.15265 18.3939 4.15289ZM23.9829 11.9919C23.9829 10.3359 23.9979 8.69489 23.9049 7.04189C23.8119 5.12189 23.3739 3.41789 21.9699 2.01389C20.5629 0.606892 18.8619 0.171892 16.9419 0.0788923C15.2859 -0.0141077 13.6449 0.000892332 11.9919 0.000892332C10.3359 0.000892332 8.69489 -0.0141077 7.04189 0.0788923C5.12189 0.171892 3.41789 0.609892 2.01389 2.01389C0.606892 3.42089 0.171892 5.12189 0.0788923 7.04189C-0.0141077 8.69789 0.000892332 10.3389 0.000892332 11.9919C0.000892332 13.6449 -0.0141077 15.2889 0.0788923 16.9419C0.171892 18.8619 0.609892 20.5659 2.01389 21.9699C3.42089 23.3769 5.12189 23.8119 7.04189 23.9049C8.69789 23.9979 10.3389 23.9829 11.9919 23.9829C13.6479 23.9829 15.2889 23.9979 16.9419 23.9049C18.8619 23.8119 20.5659 23.3739 21.9699 21.9699C23.3769 20.5629 23.8119 18.8619 23.9049 16.9419C24.0009 15.2889 23.9829 13.6479 23.9829 11.9919ZM21.3429 19.0659C21.1239 19.6119 20.8599 20.0199 20.4369 20.4399C20.0139 20.8629 19.6089 21.1269 19.0629 21.3459C17.4849 21.9729 13.7379 21.8319 11.9889 21.8319C10.2399 21.8319 6.48989 21.9729 4.91189 21.3489C4.36589 21.1299 3.95789 20.8659 3.53789 20.4429C3.11489 20.0199 2.85089 19.6149 2.63189 19.0689C2.00789 17.4879 2.14889 13.7409 2.14889 11.9919C2.14889 10.2429 2.00789 6.49289 2.63189 4.91489C2.85089 4.36889 3.11489 3.96089 3.53789 3.54089C3.96089 3.12089 4.36589 2.85389 4.91189 2.63489C6.48989 2.01089 10.2399 2.15189 11.9889 2.15189C13.7379 2.15189 17.4879 2.01089 19.0659 2.63489C19.6119 2.85389 20.0199 3.11789 20.4399 3.54089C20.8629 3.96389 21.1269 4.36889 21.3459 4.91489C21.9699 6.49289 21.8289 10.2429 21.8289 11.9919C21.8289 13.7409 21.9699 17.4879 21.3429 19.0659Z" fill="#E61F5A"/>
</svg>
