<svg width="72" height="72" viewBox="0 0 72 72" fill="none" xmlns="http://www.w3.org/2000/svg">
<path d="M55.7357 38.9947C55.3842 38.6426 54.9667 38.3632 54.5071 38.1726C54.0475 37.982 53.5548 37.8839 53.0573 37.8839C52.5597 37.8839 52.0671 37.982 51.6075 38.1726C51.1479 38.3632 50.7304 38.6426 50.3789 38.9947L44.3402 45.0334C41.5406 44.1999 36.3164 42.3057 33.0053 38.9947C29.6943 35.6836 27.8001 30.4594 26.9666 27.6598L33.0053 21.6211C33.3574 21.2696 33.6368 20.8521 33.8274 20.3925C34.018 19.9329 34.1161 19.4403 34.1161 18.9427C34.1161 18.4452 34.018 17.9525 33.8274 17.4929C33.6368 17.0333 33.3574 16.6159 33.0053 16.2643L17.8517 1.11076C17.5002 0.758646 17.0827 0.479298 16.6231 0.288701C16.1635 0.0981045 15.6709 0 15.1733 0C14.6758 0 14.1831 0.0981045 13.7235 0.288701C13.264 0.479298 12.8465 0.758646 12.4949 1.11076L2.22082 11.3849C0.78123 12.8245 -0.0294868 14.802 0.000820357 16.8212C0.0879534 22.2159 1.51618 40.9533 16.2833 55.7204C31.0505 70.4876 49.7879 71.912 55.1864 72.003H55.2924C57.2927 72.003 59.1831 71.215 60.6151 69.783L70.8892 59.5088C71.2414 59.1573 71.5207 58.7398 71.7113 58.2802C71.9019 57.8207 72 57.328 72 56.8304C72 56.3329 71.9019 55.8402 71.7113 55.3807C71.5207 54.9211 71.2414 54.5036 70.8892 54.1521L55.7357 38.9947ZM55.2545 64.4224C50.5266 64.3428 34.3502 63.0737 21.6401 50.3599C8.88839 37.6081 7.65338 21.3749 7.57761 16.7417L15.1733 9.14594L24.9701 18.9427L20.0717 23.8411C19.6264 24.2861 19.2991 24.835 19.1191 25.4382C18.9392 26.0414 18.9125 26.68 19.0413 27.2961C19.1322 27.7318 21.356 38.0627 27.6447 44.3515C33.9335 50.6402 44.2644 52.864 44.7001 52.9549C45.3159 53.0874 45.9551 53.0627 46.5588 52.8833C47.1626 52.7039 47.7116 52.3755 48.1551 51.9283L53.0573 47.0299L62.8541 56.8267L55.2545 64.4224Z" fill="#0D5C63"/>
</svg>
