<svg width="73" height="72" viewBox="0 0 73 72" fill="none" xmlns="http://www.w3.org/2000/svg">
<path d="M29.5 36C37.4967 36 44 29.721 44 22C44 14.279 37.4967 8 29.5 8C21.5032 8 15 14.279 15 22C15 29.721 21.5032 36 29.5 36ZM29.5 15C33.4984 15 36.75 18.1395 36.75 22C36.75 25.8605 33.4984 29 29.5 29C25.5016 29 22.25 25.8605 22.25 22C22.25 18.1395 25.5016 15 29.5 15Z" fill="white"/>
<path d="M27.4338 70.3403C28.0367 70.7693 28.7591 71 29.5 71C30.2409 71 30.9633 70.7693 31.5662 70.3403C32.6492 69.577 58.103 51.2624 57.9997 28.4002C57.9997 12.7411 45.214 0 29.5 0C13.786 0 1.00031 12.7411 1.00031 28.3825C0.897002 51.2624 26.3508 69.577 27.4338 70.3403ZM29.5 7.10006C41.2882 7.10006 50.8748 16.6532 50.8748 28.418C50.9496 44.173 35.2427 58.3199 29.5 62.9598C23.7609 58.3163 8.05042 44.1659 8.12524 28.4002C8.12524 16.6532 17.7118 7.10006 29.5 7.10006Z" fill="white"/>
</svg>
