<svg width="24" height="20" viewBox="0 0 24 20" fill="none" xmlns="http://www.w3.org/2000/svg">
<path d="M23.9741 2.3478C23.0924 2.73374 22.133 3.0115 21.1448 3.11968C22.1708 2.50111 22.9391 1.52388 23.3056 0.371331C22.3428 0.952545 21.2881 1.3601 20.1882 1.57592C19.7285 1.07721 19.1725 0.679905 18.5549 0.408777C17.9373 0.137649 17.2712 -0.00149634 16.5983 1.21348e-05C13.8756 1.21348e-05 11.6859 2.23962 11.6859 4.98797C11.6859 5.3739 11.732 5.75984 11.807 6.13116C7.73013 5.9148 4.09412 3.93833 1.67683 0.912229C1.23637 1.67567 1.00556 2.54494 1.0084 3.4296C1.0084 5.16047 1.87563 6.68668 3.19808 7.58427C2.41874 7.55313 1.65765 7.33575 0.97671 6.94982V7.01122C0.97671 9.43502 2.66507 11.4437 4.91524 11.9056C4.49275 12.017 4.05812 12.0739 3.62161 12.0752C3.3018 12.0752 2.99928 12.043 2.69388 11.9992C3.3162 13.9756 5.12845 15.4112 7.28643 15.458C5.59808 16.8 3.48331 17.5894 1.18703 17.5894C0.77503 17.5894 0.394718 17.5748 0 17.528C2.17815 18.9461 4.76254 19.7647 7.54573 19.7647C16.581 19.7647 21.5251 12.1687 21.5251 5.57564C21.5251 5.35928 21.5251 5.14293 21.5107 4.92657C22.4672 4.21609 23.3056 3.33604 23.9741 2.3478Z" fill="#21A6DF"/>
</svg>
