<svg width="24" height="18" viewBox="0 0 24 18" fill="none" xmlns="http://www.w3.org/2000/svg">
<path d="M23.4699 2.75503C23.3335 2.22207 23.0663 1.73613 22.6951 1.34585C22.324 0.955579 21.8619 0.674655 21.355 0.531198C19.4884 1.60993e-07 11.9879 0 11.9879 0C11.9879 0 4.48729 1.60993e-07 2.62071 0.531198C2.11385 0.674655 1.65172 0.955579 1.28057 1.34585C0.90941 1.73613 0.642248 2.22207 0.50582 2.75503C0.157288 4.75672 -0.0118455 6.78838 0.000644257 8.82329C-0.0118455 10.8582 0.157288 12.8899 0.50582 14.8916C0.642248 15.4245 0.90941 15.9105 1.28057 16.3007C1.65172 16.691 2.11385 16.9719 2.62071 17.1154C4.48729 17.6466 11.9879 17.6466 11.9879 17.6466C11.9879 17.6466 19.4884 17.6466 21.355 17.1154C21.8619 16.9719 22.324 16.691 22.6951 16.3007C23.0663 15.9105 23.3335 15.4245 23.4699 14.8916C23.8184 12.8899 23.9876 10.8582 23.9751 8.82329C23.9876 6.78838 23.8184 4.75672 23.4699 2.75503ZM9.59041 12.6047V5.04188L15.8152 8.82329L9.59041 12.6047Z" fill="#E42F08"/>
</svg>
